<svg width="22" height="23" viewBox="0 0 22 23" fill="none" xmlns="http://www.w3.org/2000/svg">
<path d="M0 21.4141V3.07232C0.559652 1.76293 1.00408 1.48057 2.49748 1.48057C3.05564 1.48057 3.6123 1.48057 4.17045 1.48057C4.34404 1.48057 4.51163 1.49227 4.54006 1.2538C4.58941 0.961008 4.72255 0.687863 4.92408 0.465976C5.12561 0.244089 5.38728 0.0825317 5.67882 0L6.28486 0C6.73378 0.171172 7.24255 0.365753 7.32485 0.848547C7.44457 1.55518 7.89049 1.51275 8.40076 1.48496C8.68657 1.46886 8.97388 1.48496 9.26119 1.48496C9.37941 1.48496 9.5066 1.48496 9.52156 1.32549C9.56139 1.02301 9.68832 0.737821 9.88754 0.503151C10.0868 0.26848 10.3501 0.0939868 10.6469 0L11.3561 0C11.7542 0.207748 12.254 0.386235 12.3333 0.848547C12.4485 1.54055 12.8795 1.52738 13.3987 1.48496C13.6684 1.47145 13.9386 1.47145 14.2083 1.48496C14.3699 1.48496 14.4821 1.48496 14.5165 1.26843C14.5685 0.966396 14.7092 0.685659 14.9215 0.460438C15.1338 0.235216 15.4085 0.0752375 15.7121 0L16.3212 0C16.7237 0.175561 17.219 0.361364 17.2923 0.790026C17.442 1.58883 17.9672 1.52153 18.5388 1.48496C18.8591 1.4674 19.1808 1.48496 19.501 1.48496C20.9974 1.48496 21.4389 1.76732 22 3.07671V21.4141C21.8889 21.791 21.6818 22.1342 21.3981 22.4115C21.1144 22.6889 20.7634 22.8914 20.3779 23H1.62209C1.23627 22.892 0.88492 22.6897 0.601137 22.4123C0.317355 22.1348 0.11048 21.7913 0 21.4141ZM11.0015 6.8425C7.84261 6.8425 4.68372 6.85128 1.52483 6.83226C1.09686 6.83226 1.00109 6.94491 1.00258 7.35017C1.01755 11.8431 1.01156 16.3345 1.01306 20.8274C1.01306 21.6965 1.33778 22.0125 2.23561 22.0125H19.7704C20.6682 22.0125 20.9914 21.6965 20.9914 20.826C20.9914 16.3331 20.9914 11.8416 21.0019 7.34871C21.0019 6.94053 20.9046 6.82934 20.4782 6.8308C17.3193 6.84982 14.1604 6.8425 11.0015 6.8425ZM11.0015 5.86521H12.9289C15.4623 5.86521 17.9942 5.85643 20.5275 5.87399C20.9121 5.87399 21.0169 5.77012 20.9989 5.40436C20.9675 4.77819 20.9989 4.15056 20.9899 3.52293C21.0098 3.37811 20.9953 3.23076 20.9475 3.0923C20.8998 2.95383 20.8201 2.82797 20.7146 2.72443C20.6092 2.6209 20.4808 2.54248 20.3393 2.49524C20.1979 2.448 20.0473 2.43321 19.8991 2.45201C19.2406 2.4403 18.5822 2.46078 17.9238 2.44469C17.6245 2.43738 17.4869 2.50321 17.4225 2.82946C17.3612 3.10518 17.2125 3.35496 16.9975 3.54329C16.7826 3.73161 16.5124 3.84889 16.2254 3.87844C15.9262 3.95201 15.61 3.91729 15.3349 3.78069C15.0599 3.64409 14.8447 3.41483 14.729 3.13523C14.539 2.3891 14.0781 2.40373 13.5095 2.44762C13.3412 2.46192 13.1719 2.46192 13.0037 2.44762C12.6849 2.41836 12.5069 2.47541 12.4291 2.85433C12.359 3.13757 12.1972 3.39107 11.9677 3.57696C11.7382 3.76286 11.4533 3.87118 11.1556 3.88576C10.852 3.94029 10.5384 3.88831 10.2702 3.73897C10.0019 3.58963 9.79614 3.35251 9.68916 3.0694C9.52755 2.43299 9.16093 2.39788 8.64168 2.44615C8.4228 2.46841 8.20215 2.46841 7.98327 2.44615C7.67052 2.41104 7.5149 2.49736 7.42511 2.82654C7.35271 3.14181 7.16837 3.4218 6.90482 3.61679C6.64128 3.81178 6.31559 3.90915 5.98558 3.89161C5.65233 3.90359 5.32582 3.79779 5.06585 3.59359C4.80587 3.38939 4.62984 3.10046 4.56999 2.77972C4.50714 2.4959 4.37995 2.44615 4.12107 2.44908C3.4462 2.45932 2.77432 2.44908 2.09495 2.44908C1.94669 2.43068 1.79608 2.44587 1.65479 2.49349C1.51349 2.54111 1.3853 2.61987 1.28013 2.72369C1.17495 2.8275 1.09562 2.95359 1.04827 3.09218C1.00093 3.23077 0.986829 3.37816 1.00707 3.52293C1.00707 4.13301 1.03401 4.74601 0.996599 5.35462C0.97116 5.77012 1.10135 5.87399 1.52333 5.87106C4.68821 5.85205 7.8456 5.86668 11.003 5.86668M11.5222 1.98677H11.5073C11.5158 1.82253 11.5158 1.65797 11.5073 1.49373C11.4774 1.20113 11.3427 0.991922 11.003 0.990459C10.9349 0.986255 10.8666 0.996425 10.8029 1.02028C10.7392 1.04414 10.6814 1.08112 10.6336 1.12871C10.5857 1.17631 10.5489 1.23341 10.5257 1.29614C10.5024 1.35887 10.4932 1.42576 10.4987 1.49227C10.4776 1.83648 10.4831 2.18176 10.5152 2.52516C10.5244 2.64302 10.5804 2.75268 10.6713 2.83062C10.7623 2.90855 10.8808 2.94858 11.0015 2.94212C11.1217 2.94748 11.2394 2.90726 11.33 2.82985C11.4206 2.75243 11.4772 2.6438 11.4878 2.52662C11.5148 2.3496 11.5133 2.16672 11.5237 1.98677M6.49436 1.94581C6.49436 1.79755 6.49436 1.65125 6.49436 1.5069C6.50656 1.44057 6.50297 1.37238 6.48387 1.30762C6.46478 1.24286 6.43068 1.18326 6.38423 1.13346C6.33778 1.08366 6.28022 1.04499 6.21602 1.02045C6.15182 0.9959 6.08269 0.986139 6.01401 0.991922C5.94604 0.985747 5.8775 0.993943 5.81305 1.01595C5.74861 1.03797 5.68976 1.07328 5.6405 1.11949C5.59125 1.1657 5.55274 1.22174 5.52759 1.28379C5.50245 1.34584 5.49125 1.41245 5.49476 1.4791C5.46817 1.80777 5.46817 2.13797 5.49476 2.46664C5.49471 2.53361 5.50918 2.59983 5.53721 2.66093C5.56523 2.72204 5.60619 2.77665 5.65737 2.82116C5.70855 2.86567 5.76879 2.89907 5.83413 2.91916C5.89948 2.93925 5.96843 2.94558 6.03646 2.93773C6.09994 2.93559 6.1623 2.92082 6.21973 2.89431C6.27717 2.86779 6.32847 2.8301 6.37049 2.78354C6.41251 2.73698 6.44438 2.68252 6.46413 2.6235C6.48388 2.56448 6.49111 2.50215 6.48538 2.4403C6.48538 2.27498 6.48538 2.11113 6.48538 1.94581M15.5012 1.96336C15.5012 2.10966 15.5012 2.25596 15.5012 2.40226C15.4917 2.46841 15.4969 2.53577 15.5165 2.59977C15.536 2.66377 15.5694 2.7229 15.6144 2.77314C15.6594 2.82339 15.715 2.86358 15.7773 2.89097C15.8396 2.91835 15.9072 2.93231 15.9755 2.93187C16.0439 2.93728 16.1126 2.92849 16.1772 2.90609C16.2418 2.88369 16.3009 2.84819 16.3505 2.8019C16.4001 2.75562 16.4391 2.69961 16.465 2.63755C16.4909 2.57548 16.5031 2.50876 16.5007 2.44177C16.5286 2.09687 16.5251 1.75024 16.4903 1.40595C16.4868 1.34325 16.47 1.28195 16.4409 1.22595C16.4118 1.16996 16.3712 1.12049 16.3215 1.08072C16.2718 1.04094 16.2142 1.01172 16.1523 0.994919C16.0904 0.97812 16.0256 0.974109 15.962 0.983144C15.8985 0.98142 15.8353 0.992903 15.7767 1.01683C15.7181 1.04076 15.6653 1.07659 15.6218 1.12195C15.5784 1.16732 15.5453 1.22118 15.5248 1.27997C15.5042 1.33876 15.4967 1.40115 15.5027 1.46301C15.5027 1.62687 15.5027 1.79219 15.5027 1.95751" fill="#062E48"/>
<path d="M12.4782 17.1391C12.4729 17.4241 12.3818 17.7011 12.2161 17.9357C12.0505 18.1702 11.8177 18.3518 11.547 18.4576C11.2763 18.5634 10.9797 18.5888 10.6944 18.5305C10.409 18.4723 10.1475 18.3331 9.94275 18.1302C9.73796 17.9274 9.59892 17.67 9.54307 17.3902C9.48722 17.1105 9.51702 16.8208 9.62875 16.5576C9.74048 16.2943 9.92918 16.0692 10.1712 15.9103C10.4132 15.7514 10.6978 15.6658 10.9893 15.6643C11.1876 15.6605 11.3846 15.6961 11.5683 15.7691C11.7521 15.8421 11.9186 15.9509 12.058 16.0889C12.1973 16.2268 12.3064 16.3911 12.3786 16.5717C12.4509 16.7522 12.4848 16.9453 12.4782 17.1391ZM11.4981 17.1157C11.4991 17.0516 11.4865 16.988 11.4609 16.929C11.4354 16.8699 11.3976 16.8168 11.3498 16.7729C11.3021 16.7289 11.2455 16.6952 11.1837 16.6739C11.1219 16.6526 11.0562 16.6441 10.9908 16.649C10.9275 16.6435 10.8638 16.6513 10.8038 16.6718C10.7438 16.6922 10.689 16.7249 10.6428 16.7676C10.5967 16.8104 10.5604 16.8622 10.5363 16.9197C10.5122 16.9771 10.5009 17.039 10.503 17.101C10.4946 17.1668 10.5008 17.2335 10.5212 17.2967C10.5415 17.3599 10.5756 17.4181 10.621 17.4673C10.6665 17.5164 10.7223 17.5554 10.7845 17.5816C10.8468 17.6078 10.9141 17.6205 10.9818 17.6189C11.2886 17.6292 11.4652 17.439 11.4981 17.1157Z" fill="#062E48"/>
<path d="M6.01761 13.1941C5.81947 13.2011 5.62192 13.1691 5.43668 13.1C5.25144 13.0308 5.0823 12.926 4.93928 12.7918C4.79627 12.6575 4.68231 12.4965 4.60417 12.3184C4.52602 12.1402 4.48529 11.9485 4.48439 11.7547C4.48349 11.5609 4.52244 11.3688 4.59892 11.19C4.6754 11.0111 4.78785 10.8491 4.92961 10.7136C5.07136 10.5781 5.23953 10.4718 5.42411 10.401C5.6087 10.3303 5.80595 10.2965 6.00414 10.3017C6.20228 10.2947 6.39984 10.3267 6.58508 10.3959C6.77032 10.465 6.93946 10.5698 7.08247 10.704C7.22549 10.8383 7.33944 10.9993 7.41759 11.1774C7.49573 11.3556 7.53647 11.5473 7.53737 11.7411C7.53827 11.935 7.49932 12.127 7.42284 12.3058C7.34636 12.4847 7.23391 12.6467 7.09215 12.7822C6.95039 12.9177 6.78223 13.024 6.59764 13.0948C6.41305 13.1655 6.21581 13.1993 6.01761 13.1941ZM6.49945 11.7852C6.50464 11.7195 6.49617 11.6534 6.47455 11.591C6.45294 11.5285 6.41863 11.471 6.37368 11.4219C6.32874 11.3728 6.27409 11.333 6.21302 11.3051C6.15196 11.2771 6.08574 11.2615 6.01836 11.2593C5.95098 11.257 5.88382 11.2681 5.82094 11.2919C5.75805 11.3156 5.70073 11.3516 5.65243 11.3976C5.60413 11.4436 5.56584 11.4986 5.53988 11.5595C5.51392 11.6203 5.50081 11.6856 5.50136 11.7516C5.50239 11.8776 5.55317 11.9983 5.64309 12.0886C5.73301 12.1788 5.85511 12.2316 5.98391 12.236C6.11271 12.2403 6.23825 12.1959 6.33431 12.1119C6.43038 12.0279 6.48954 11.9108 6.49945 11.7852Z" fill="#062E48"/>
<path d="M17.4795 11.6748C17.4918 11.8635 17.4657 12.0528 17.4026 12.2316C17.3395 12.4104 17.2407 12.5752 17.1119 12.7163C16.9831 12.8575 16.8269 12.9722 16.6524 13.0538C16.4779 13.1355 16.2886 13.1824 16.0953 13.1919C15.7032 13.2173 15.3168 13.0894 15.0212 12.8363C14.7256 12.5832 14.5449 12.2257 14.5189 11.8423C14.4929 11.4589 14.6237 11.0812 14.8826 10.7921C15.1415 10.5031 15.5072 10.3264 15.8993 10.301C16.0963 10.2846 16.2948 10.3077 16.4824 10.3687C16.6701 10.4298 16.843 10.5275 16.9907 10.6561C17.1385 10.7846 17.2578 10.9412 17.3416 11.1164C17.4254 11.2915 17.4733 11.4815 17.4795 11.6748ZM16.5158 11.7377C16.5144 11.6713 16.4991 11.6058 16.471 11.5453C16.4429 11.4848 16.4025 11.4305 16.3522 11.3858C16.302 11.3411 16.2429 11.3068 16.1787 11.285C16.1145 11.2633 16.0464 11.2545 15.9786 11.2593C15.9109 11.2577 15.8437 11.2708 15.7818 11.2976C15.7199 11.3244 15.6648 11.3642 15.6204 11.4143C15.5761 11.4643 15.5436 11.5234 15.5254 11.5871C15.5071 11.6509 15.5035 11.7178 15.5147 11.7831C15.5145 11.8443 15.5273 11.9049 15.5524 11.961C15.5776 12.0171 15.6144 12.0675 15.6607 12.1088C15.7069 12.1502 15.7615 12.1816 15.8209 12.2011C15.8803 12.2206 15.9432 12.2277 16.0055 12.2219C16.0722 12.2239 16.1386 12.2127 16.2007 12.189C16.2629 12.1653 16.3195 12.1295 16.3671 12.0839C16.4148 12.0382 16.4525 11.9837 16.4781 11.9234C16.5036 11.8632 16.5165 11.7985 16.5158 11.7333" fill="#062E48"/>
<path d="M5.99462 18.5794C5.80081 18.5826 5.60833 18.5476 5.4286 18.4767C5.24888 18.4057 5.08556 18.3001 4.94836 18.1663C4.81117 18.0324 4.70287 17.873 4.62992 17.6974C4.55696 17.5218 4.52082 17.3337 4.52366 17.1442C4.52025 16.9505 4.55653 16.7582 4.63036 16.5784C4.70419 16.3987 4.81407 16.2352 4.95353 16.0977C5.09298 15.9601 5.25919 15.8512 5.44236 15.7774C5.62553 15.7036 5.82195 15.6664 6.02005 15.668C6.4196 15.6753 6.8 15.8368 7.07834 16.1171C7.35667 16.3975 7.51039 16.774 7.50597 17.1647C7.49349 17.5463 7.3289 17.908 7.04736 18.1726C6.76581 18.4372 6.38962 18.5838 5.9991 18.5809M6.4974 17.1939C6.4974 16.8589 6.35524 16.6702 6.03202 16.6541C5.93552 16.649 5.83962 16.6717 5.75612 16.7192C5.67262 16.7668 5.60517 16.8372 5.56209 16.9218C5.51901 17.0063 5.50217 17.1014 5.51366 17.1952C5.52514 17.289 5.56444 17.3775 5.62672 17.4497C5.689 17.522 5.77153 17.5748 5.86415 17.6018C5.95677 17.6287 6.05544 17.6286 6.14799 17.6014C6.24054 17.5742 6.32293 17.5212 6.38502 17.4488C6.4471 17.3764 6.48617 17.2878 6.4974 17.1939Z" fill="#062E48"/>
<path d="M17.4764 17.1519C17.4783 17.3414 17.4411 17.5294 17.3671 17.7045C17.2931 17.8797 17.1838 18.0385 17.0457 18.1714C16.9076 18.3044 16.7435 18.4088 16.5633 18.4785C16.383 18.5482 16.1903 18.5816 15.9965 18.5769C15.7986 18.5769 15.6026 18.5386 15.42 18.464C15.2374 18.3895 15.0717 18.2803 14.9325 18.1427C14.7933 18.0052 14.6835 17.842 14.6092 17.6626C14.535 17.4833 14.4979 17.2913 14.5001 17.0978C14.5131 16.7166 14.6759 16.3549 14.9545 16.0879C15.2332 15.8209 15.6064 15.6691 15.9965 15.6641C16.1941 15.6646 16.3896 15.7037 16.5715 15.7792C16.7534 15.8547 16.918 15.9651 17.0556 16.1037C17.1933 16.2424 17.3011 16.4065 17.3729 16.5865C17.4446 16.7666 17.4788 16.9588 17.4734 17.1519M16.5142 17.1124C16.4439 16.8286 16.2957 16.6267 15.968 16.6487C15.9007 16.6464 15.8337 16.659 15.772 16.6855C15.7104 16.712 15.6555 16.7517 15.6117 16.8017C15.5679 16.8518 15.5361 16.9108 15.5188 16.9745C15.5015 17.0381 15.499 17.1048 15.5116 17.1695C15.5101 17.2316 15.522 17.2934 15.5467 17.3506C15.5713 17.4079 15.6082 17.4594 15.6547 17.5017C15.7012 17.5441 15.7564 17.5762 15.8167 17.5961C15.8769 17.616 15.9407 17.6232 16.004 17.6172C16.3032 17.6172 16.4738 17.4065 16.5142 17.1124Z" fill="#062E48"/>
<path d="M12.4784 11.7644C12.4753 12.052 12.3847 12.3322 12.2181 12.5693C12.0516 12.8063 11.8166 12.9896 11.5431 13.0956C11.2696 13.2016 10.9701 13.2256 10.6826 13.1645C10.3951 13.1035 10.1327 12.9601 9.92891 12.7528C9.72507 12.5454 9.58899 12.2834 9.53803 12.0001C9.48706 11.7168 9.52351 11.4251 9.64273 11.1622C9.76195 10.8993 9.95854 10.677 10.2075 10.5237C10.4564 10.3704 10.7463 10.293 11.0404 10.3014C11.2337 10.3029 11.4249 10.3421 11.6025 10.4169C11.7801 10.4917 11.9406 10.6004 12.0746 10.7367C12.2086 10.873 12.3134 11.0342 12.3827 11.2107C12.4521 11.3872 12.4846 11.5754 12.4784 11.7644ZM11 11.2524C10.9317 11.2512 10.864 11.2639 10.8011 11.2897C10.7382 11.3155 10.6815 11.3539 10.6346 11.4024C10.5877 11.4508 10.5517 11.5083 10.5288 11.5712C10.5059 11.634 10.4967 11.7008 10.5017 11.7673C10.5045 11.8307 10.5201 11.893 10.5476 11.9505C10.575 12.008 10.6138 12.0596 10.6616 12.1025C10.7095 12.1454 10.7655 12.1786 10.8265 12.2003C10.8876 12.222 10.9523 12.2317 11.0172 12.2289C11.082 12.2261 11.1457 12.2109 11.2045 12.184C11.2633 12.1572 11.3162 12.1193 11.36 12.0725C11.4038 12.0257 11.4378 11.9709 11.46 11.9113C11.4822 11.8516 11.4921 11.7883 11.4893 11.7249C11.4891 11.6624 11.4763 11.6006 11.4515 11.5429C11.4268 11.4853 11.3906 11.433 11.3452 11.3891C11.2997 11.3452 11.2458 11.3105 11.1865 11.287C11.1273 11.2636 11.0639 11.2518 11 11.2524Z" fill="#062E48"/>
</svg>
